<?xml version="1.0" encoding="utf-8"?>
<!-- Svg Vector Icons : http://www.onlinewebfonts.com/icon -->
<!DOCTYPE svg PUBLIC "-//W3C//DTD SVG 1.1//EN" "http://www.w3.org/Graphics/SVG/1.1/DTD/svg11.dtd">
<svg version="1.1" fill='#818cf8' xmlns="http://www.w3.org/2000/svg" xmlns:xlink="http://www.w3.org/1999/xlink" x="0px" y="0px" viewBox="0 0 1000 1000" enable-background="new 0 0 1000 1000" xml:space="preserve">
<metadata> Svg Vector Icons : http://www.onlinewebfonts.com/icon </metadata>
<g><g><g><path  d="M245.2,705.8c-24.5,0-45.3,8.6-62.5,25.7c-17.1,17.2-25.7,38-25.7,62.5c0,24.5,8.6,45.3,25.7,62.5c17.2,17.2,38,25.7,62.5,25.7c24.1,0,44.8-8.6,62.2-25.7c17.4-17.1,26-38,26-62.5c0-24.5-8.7-45.3-26-62.5C290,714.4,269.3,705.8,245.2,705.8z"/><path d="M225.6,519.6c0-26.9-9.6-50-28.8-69.2c-19.2-19.2-42.3-28.8-69.2-28.8c-27,0-50,9.6-69.2,28.8c-19.2,19.2-28.8,42.3-28.8,69.2c0,26.9,9.6,50,28.8,69.2c19.2,19.2,42.3,28.8,69.2,28.8c26.9,0,50-9.6,69.2-28.8C216,569.6,225.6,546.5,225.6,519.6z"/><path d="M794,294.2c13.5,0,25-4.8,34.6-14.4c9.6-9.6,14.4-21.1,14.4-34.6c0-13.5-4.8-25-14.4-34.6c-9.6-9.6-21.1-14.4-34.6-14.4c-13.5,0-25,4.8-34.6,14.4c-9.6,9.6-14.4,21.1-14.4,34.6c0,13.5,4.8,25,14.4,34.6C769,289.4,780.5,294.2,794,294.2z"/><path d="M245.2,137.4c-29.8,0-55.2,10.5-76.3,31.5c-21,21-31.5,46.4-31.5,76.3c0,29.8,10.5,55.2,31.5,76.3c21,21,46.5,31.5,76.3,31.5c29.8,0,55.2-10.5,76.3-31.5c21-21,31.5-46.4,31.5-76.3c0-29.8-10.5-55.2-31.5-76.3C300.4,147.9,275,137.4,245.2,137.4z"/><path d="M953.2,477.9c-11.4-11.4-25.3-17.1-41.6-17.1c-16.3,0-30.2,5.7-41.7,17.1c-11.4,11.4-17.1,25.3-17.1,41.7c0,16.3,5.7,30.2,17.1,41.6c11.4,11.4,25.3,17.1,41.7,17.1c16.3,0,30.2-5.7,41.6-17.1c11.4-11.4,17.1-25.3,17.1-41.6C970.4,503.3,964.7,489.4,953.2,477.9z"/><path d="M794,725.4c-18.8,0-34.9,6.7-48.4,20.2c-13.5,13.5-20.2,29.6-20.2,48.4c0,18.8,6.7,34.9,20.2,48.4c13.5,13.5,29.6,20.2,48.4,20.2c18.8,0,34.9-6.7,48.4-20.2c13.5-13.5,20.2-29.6,20.2-48.4c0-18.8-6.7-34.9-20.2-48.4C828.9,732.1,812.8,725.4,794,725.4z"/><path d="M519.6,833.2c-21.6,0-40.1,7.7-55.4,23c-15.3,15.3-23,33.8-23,55.4c0,21.6,7.7,40.1,23,55.4c15.3,15.3,33.8,23,55.4,23c21.6,0,40.1-7.7,55.4-23c15.3-15.3,23-33.8,23-55.4c0-21.6-7.7-40.1-23-55.4C559.7,840.8,541.3,833.2,519.6,833.2z"/><path d="M519.6,10c-32.7,0-60.4,11.4-83.3,34.3C413.4,67.2,402,94.9,402,127.6c0,32.7,11.4,60.4,34.3,83.3c22.9,22.9,50.6,34.3,83.3,34.3c32.7,0,60.4-11.4,83.3-34.3c22.9-22.9,34.3-50.6,34.3-83.3c0-32.7-11.4-60.4-34.3-83.3C580,21.4,552.3,10,519.6,10z"/></g></g><g></g><g></g><g></g><g></g><g></g><g></g><g></g><g></g><g></g><g></g><g></g><g></g><g></g><g></g><g></g></g>
</svg>